# This file uses centimeters as units for non-parametric coordinates.

mtllib 3.mtl
g default
v 0.112640 0.495000 -0.309000
v 0.378863 0.495000 -0.575223
v 0.378863 -0.495000 -0.575223
v 0.112640 -0.495000 -0.309000
v 0.250000 0.495000 -0.309000
v 0.374238 0.495000 -0.309000
v 0.374238 0.495000 0.127259
v 0.462302 0.495000 0.215322
v 0.815855 0.495000 -0.138231
v 0.815855 -0.495000 -0.138231
v 0.462302 -0.495000 0.215322
v 0.374238 -0.495000 0.127259
v 0.374238 -0.495000 -0.309000
v 0.250000 -0.495000 -0.309000
v 0.374238 0.495000 0.303385
v 0.374238 -0.495000 0.303385
v -0.250000 -0.500000 0.309000
v 0.250000 -0.500000 0.309000
v 0.250000 0.500000 0.309000
v -0.250000 0.500000 0.309000
v -0.250000 -0.500000 -0.309000
v -0.250000 0.500000 -0.309000
v 0.250000 -0.500000 -0.309000
v 0.374238 -0.500000 0.309000
v 0.374238 0.500000 0.309000
v 0.250000 0.500000 -0.309000
v 0.374238 -0.500000 -0.309000
v 0.374238 0.500000 -0.309000
vt 0.563248 0.250000
vt 0.375000 0.250000
vt 0.375000 0.000000
vt 0.563248 0.000000
vt 0.514684 0.289291
vt 0.470759 0.324829
vt 0.625000 0.449620
vt 0.625000 0.500000
vt 0.375000 0.500000
vt 0.125000 0.000000
vt 0.125000 0.250000
vt 0.375000 0.750000
vt 0.625000 0.750000
vt 0.625000 0.800380
vt 0.470759 0.925171
vt 0.514684 0.960709
vt 0.563248 1.000000
vt 0.375000 1.000000
vt 0.875000 0.250000
vt 0.875000 0.250000
vt 0.824620 0.250000
vt 0.824620 0.000000
vt 0.875000 0.000000
vt 0.875000 0.000000
vt 0.375000 0.000000
vt 0.625000 0.000000
vt 0.625000 0.250000
vt 0.375000 0.250000
vt 0.125000 0.000000
vt 0.125000 0.250000
vt 0.375000 0.750000
vt 0.625000 0.750000
vt 0.625000 1.000000
vt 0.375000 1.000000
vt 0.625000 0.000000
vt 0.625000 0.250000
vt 0.625000 0.500000
vt 0.375000 0.500000
vt 0.625000 0.501250
vt 0.556320 0.501250
vt 0.556320 0.748750
vt 0.625000 0.748750
vt 0.875000 0.000000
vt 0.875000 0.000000
vt 0.875000 0.250000
vt 0.875000 0.250000
vt 0.875000 0.001250
vt 0.698520 0.001250
vt 0.627271 0.001250
vt 0.627271 0.248750
vt 0.698520 0.248750
vt 0.875000 0.248750
vt 0.875000 0.248750
vt 0.875000 0.001250
vn -0.707107 0.000000 -0.707107
vn -0.707107 0.000000 -0.707107
vn -0.707107 0.000000 -0.707107
vn -0.707107 0.000000 -0.707107
vn 0.000000 1.000000 -0.000000
vn 0.000000 1.000000 -0.000000
vn 0.000000 1.000000 -0.000000
vn 0.000000 1.000000 -0.000000
vn 0.000000 1.000000 -0.000000
vn 0.000000 1.000000 -0.000000
vn 0.000000 1.000000 -0.000000
vn 0.707107 0.000000 -0.707107
vn 0.707107 0.000000 -0.707107
vn 0.707107 0.000000 -0.707107
vn 0.707107 0.000000 -0.707107
vn 0.000000 -1.000000 -0.000000
vn 0.000000 -1.000000 -0.000000
vn 0.000000 -1.000000 -0.000000
vn 0.000000 -1.000000 -0.000000
vn 0.000000 -1.000000 -0.000000
vn 0.000000 -1.000000 -0.000000
vn 0.000000 -1.000000 -0.000000
vn 0.000000 1.000000 0.000000
vn 0.707107 0.000000 0.707107
vn 0.707107 0.000000 0.707107
vn 0.707107 0.000000 0.707107
vn 0.707107 0.000000 0.707107
vn 0.000000 -1.000000 0.000000
vn 0.707107 0.000000 0.707107
vn 0.707107 0.000000 0.707107
vn 0.000000 0.000000 1.000000
vn 0.000000 0.000000 1.000000
vn 0.000000 0.000000 1.000000
vn 0.000000 0.000000 1.000000
vn -1.000000 0.000000 0.000000
vn -1.000000 0.000000 0.000000
vn -1.000000 0.000000 0.000000
vn -1.000000 0.000000 0.000000
vn 0.000000 -1.000000 0.000000
vn 0.000000 -1.000000 0.000000
vn 0.000000 -1.000000 0.000000
vn 0.000000 -1.000000 0.000000
vn 0.000000 0.000000 1.000000
vn 0.000000 0.000000 1.000000
vn 0.000000 1.000000 0.000000
vn 0.000000 1.000000 0.000000
vn 0.000000 1.000000 0.000000
vn 0.000000 1.000000 0.000000
vn 0.000000 0.000000 -1.000000
vn 0.000000 0.000000 -1.000000
vn 0.000000 0.000000 -1.000000
vn 0.000000 0.000000 -1.000000
vn 0.000000 0.000000 -1.000000
vn 0.000000 0.000000 -1.000000
vn 0.000000 0.000000 -1.000000
vn 0.000000 0.000000 -1.000000
vn 0.000000 -1.000000 0.000000
vn 0.000000 -1.000000 0.000000
vn 0.000000 1.000000 0.000000
vn 0.000000 1.000000 0.000000
vn 1.000000 0.000000 0.000000
vn 1.000000 0.000000 0.000000
vn 1.000000 0.000000 0.000000
vn 1.000000 0.000000 0.000000
vn 1.000000 0.000000 0.000000
vn 1.000000 0.000000 0.000000
vn 1.000000 0.000000 0.000000
vn 1.000000 0.000000 0.000000
vn 1.000000 0.000000 0.000000
vn 1.000000 0.000000 0.000000
vn 0.000000 0.000000 -1.000000
vn 0.000000 0.000000 -1.000000
vn 0.000000 0.000000 -1.000000
vn 0.000000 0.000000 -1.000000
s off
g pCube3
usemtl initialShadingGroup
f 1/1/1 2/2/2 3/3/3 4/4/4
s 1
f 2/2/5 1/1/6 5/5/7 6/6/8 7/7/9 8/8/10 9/9/11
s off
f 10/10/12 3/3/13 2/2/14 9/11/15
s 2
f 10/12/16 11/13/17 12/14/18 13/15/19 14/16/20 4/17/21 3/18/22
s 1
f 15/19/23 8/20/10 7/21/9
s 3
f 9/9/24 8/8/25 11/13/26 10/12/27
s 2
f 12/22/18 11/23/17 16/24/28
s 3
f 16/24/29 11/23/26 8/20/25 15/19/30
s 4
f 17/25/31 18/26/32 19/27/33 20/28/34
s off
f 21/29/35 17/25/36 20/28/37 22/30/38
s 5
f 21/31/39 23/32/40 18/33/41 17/34/42
s 4
f 19/27/33 18/26/32 24/35/43 25/36/44
s 6
f 20/28/45 19/27/46 26/37/47 22/38/48
s 7
f 22/38/49 26/37/50 5/39/51 1/40/52 4/41/53 14/42/54 23/32/55 21/31/56
s 5
f 18/26/41 23/43/40 27/44/57 24/35/58
s 6
f 26/45/47 19/27/46 25/36/59 28/46/60
s off
f 24/35/61 27/44/62 13/47/63 12/48/64 16/49/65 15/50/66 7/51/67 6/52/68 28/46/69 25/36/70
s 7
f 5/53/51 26/45/50 28/46/71 6/52/72
f 23/43/55 14/54/54 13/47/73 27/44/74
