# This file uses centimeters as units for non-parametric coordinates.

mtllib 8888.mtl
g default
v -0.499500 -0.500000 0.309000
v -0.305898 -0.500000 0.310654
v 0.309000 -0.500000 0.309000
v -0.499500 -0.500000 -0.309000
v -0.309000 -0.500000 -0.308500
v 0.308538 -0.500000 -0.314182
v -0.309000 -0.500000 -0.499500
v 0.309000 -0.500000 -0.499500
v -0.499500 0.500000 0.309000
v -0.305898 0.500000 0.310654
v -0.309000 0.500000 -0.308500
v -0.499500 0.500000 -0.309000
v 0.309000 0.500000 0.309000
v 0.308538 0.500000 -0.314183
v 0.309000 0.500000 -0.499500
v -0.309000 0.500000 -0.499500
vt 0.000000 0.000000
vt 0.500000 0.000000
vt 1.000000 0.000000
vt 0.000000 0.500000
vt 0.500000 0.500000
vt 1.000000 0.500000
vt 0.500000 1.000000
vt 1.000000 1.000000
vt 0.000000 0.000000
vt 0.500000 0.000000
vt 0.500000 0.500000
vt 0.000000 0.500000
vt 1.000000 0.000000
vt 1.000000 0.500000
vt 1.000000 1.000000
vt 0.500000 1.000000
vt 0.000000 0.000000
vt 0.500000 0.000000
vt 0.500000 0.500000
vt 0.000000 0.500000
vt 1.000000 0.000000
vt 1.000000 0.500000
vt 1.000000 1.000000
vt 0.500000 1.000000
vn 0.000000 1.000000 0.000000
vn 0.000000 1.000000 0.000000
vn 0.000000 1.000000 -0.000000
vn 0.000000 1.000000 0.000000
vn 0.000000 1.000000 0.000000
vn 0.000000 1.000000 -0.000000
vn 0.000000 1.000000 -0.000001
vn 0.000000 1.000000 -0.000001
vn 0.000000 -1.000000 0.000000
vn 0.000000 -1.000000 0.000000
vn 0.000000 -1.000000 0.000000
vn 0.000000 -1.000000 0.000000
vn 0.000000 -1.000000 0.000000
vn 0.000000 -1.000000 0.000000
vn 0.000000 -1.000000 0.000000
vn 0.000000 -1.000000 0.000000
vn -0.008541 -0.000000 0.999964
vn -0.000000 -0.000000 1.000000
vn -0.000000 -0.000000 1.000000
vn -0.008541 -0.000000 0.999964
vn 0.002624 -0.000000 -0.999997
vn 0.002624 -0.000000 -0.999997
vn 0.002624 -0.000000 -0.999997
vn 0.002624 -0.000000 -0.999997
vn -1.000000 0.000000 0.000000
vn -1.000000 0.000000 0.000000
vn -1.000000 0.000000 0.000000
vn -1.000000 0.000000 0.000000
vn 0.002689 -0.000000 0.999996
vn 0.002689 -0.000000 0.999996
vn 1.000000 -0.000000 -0.000741
vn 1.000000 -0.000000 0.000000
vn 1.000000 -0.000000 0.000000
vn 1.000000 -0.000000 -0.000741
vn 0.999997 -0.000000 0.002493
vn 0.999997 -0.000000 0.002493
vn 0.000000 -0.000000 -1.000000
vn 0.000000 -0.000000 -1.000000
vn 0.000000 -0.000000 -1.000000
vn 0.000000 -0.000000 -1.000000
vn -1.000000 -0.000000 0.000000
vn -1.000000 -0.000000 0.000000
vn -1.000000 -0.000000 0.000000
vn -1.000000 -0.000000 0.000000
s 1
g pPlane1
usemtl initialShadingGroup
f 9/17/1 10/18/2 11/19/3 12/20/4
f 10/18/2 13/21/5 14/22/6 11/19/3
f 11/19/3 14/22/6 15/23/7 16/24/8
s 2
f 1/9/9 4/12/10 5/11/11 2/10/12
f 2/10/12 5/11/11 6/14/13 3/13/14
f 5/11/11 7/16/15 8/15/16 6/14/13
s 3
f 1/1/17 2/2/18 10/18/19 9/17/20
s off
f 5/5/21 4/4/22 12/20/23 11/19/24
f 4/4/25 1/1/26 9/17/27 12/20/28
s 3
f 2/2/18 3/3/29 13/21/30 10/18/19
s 4
f 3/3/31 6/6/32 14/22/33 13/21/34
f 6/6/32 8/8/35 15/23/36 14/22/33
s off
f 8/8/37 7/7/38 16/24/39 15/23/40
f 7/7/41 5/5/42 11/19/43 16/24/44
